<svg width="34" height="34" viewBox="0 0 34 34" fill="none" xmlns="http://www.w3.org/2000/svg">
<rect x="0.614434" y="0.614434" width="32.7711" height="32.7711" rx="16" fill="black" stroke="white" stroke-width="1.2"/>
<g clip-path="url(#clip0_0_52)">
<path fill-rule="evenodd" clip-rule="evenodd" d="M13.6224 8.85637C12.7504 8.89617 12.1547 9.03427 11.6327 9.23792C11.0943 9.44625 10.6378 9.72715 10.1814 10.1824C9.72727 10.6377 9.44638 11.0953 9.23805 11.6337C9.0344 12.1546 8.89629 12.7503 8.8565 13.6222C8.8167 14.4953 8.80734 14.7751 8.80734 17C8.80734 19.2249 8.8167 19.5047 8.8565 20.3778C8.89629 21.2497 9.0344 21.8454 9.23805 22.3674C9.44638 22.9058 9.72727 23.3623 10.1826 23.8187C10.6378 24.2729 11.0955 24.5537 11.6339 24.7632C12.1547 24.9657 12.7504 25.1027 13.6224 25.1436C14.4966 25.1834 14.7752 25.1928 17.0001 25.1928C19.2251 25.1928 19.5048 25.1834 20.3779 25.1436C21.2498 25.1038 21.8456 24.9657 22.3676 24.7632C22.906 24.5526 23.3624 24.2729 23.8189 23.8176C24.273 23.3623 24.5539 22.9047 24.7634 22.3663C24.9659 21.8454 25.1028 21.2497 25.1438 20.3778C25.1835 19.5035 25.1929 19.2249 25.1929 17C25.1929 14.7751 25.1835 14.4953 25.1438 13.6222C25.104 12.7503 24.9659 12.1546 24.7634 11.6326C24.5574 11.0858 24.2347 10.5905 23.8177 10.1813C23.3624 9.72715 22.9048 9.44625 22.3664 9.23792C21.8456 9.03427 21.2498 8.89617 20.3779 8.85637C19.5048 8.81658 19.2251 8.80722 17.0001 8.80722C14.7752 8.80722 14.4955 8.81658 13.6224 8.85637ZM12.7925 17C12.7925 18.1159 13.2358 19.1861 14.0249 19.9752C14.814 20.7643 15.8842 21.2076 17.0001 21.2076C18.116 21.2076 19.1863 20.7643 19.9753 19.9752C20.7644 19.1861 21.2077 18.1159 21.2077 17C21.2077 15.8841 20.7644 14.8139 19.9753 14.0248C19.1863 13.2357 18.116 12.7924 17.0001 12.7924C15.8842 12.7924 14.814 13.2357 14.0249 14.0248C13.2358 14.8139 12.7925 15.8841 12.7925 17ZM17.0001 19.7305C16.2759 19.7305 15.5814 19.4429 15.0693 18.9308C14.5573 18.4187 14.2696 17.7242 14.2696 17C14.2696 16.2758 14.5573 15.5813 15.0693 15.0692C15.5814 14.5571 16.2759 14.2695 17.0001 14.2695C17.7243 14.2695 18.4188 14.5571 18.9309 15.0692C19.443 15.5813 19.7307 16.2758 19.7307 17C19.7307 17.7242 19.443 18.4187 18.9309 18.9308C18.4188 19.4429 17.7243 19.7305 17.0001 19.7305ZM22.7351 12.3301C22.7351 12.4592 22.7096 12.5871 22.6602 12.7063C22.6108 12.8256 22.5384 12.934 22.4471 13.0253C22.3558 13.1166 22.2474 13.189 22.1282 13.2384C22.0089 13.2878 21.881 13.3132 21.7519 13.3132C21.6228 13.3132 21.495 13.2878 21.3757 13.2384C21.2564 13.189 21.1481 13.1166 21.0568 13.0253C20.9655 12.934 20.893 12.8256 20.8436 12.7063C20.7942 12.5871 20.7688 12.4592 20.7688 12.3301C20.7688 12.0694 20.8724 11.8193 21.0568 11.6349C21.2411 11.4506 21.4912 11.347 21.7519 11.347C22.0127 11.347 22.2627 11.4506 22.4471 11.6349C22.6315 11.8193 22.7351 12.0694 22.7351 12.3301Z" fill="white"/>
</g>
<defs>
<clipPath id="clip0_0_52">
<rect width="32" height="32" fill="white" transform="translate(0.614434 0.614434) scale(1.0241)"/>
</clipPath>
</defs>
</svg>
